# xmcd
#
# Track frame offsets: 
#        150
#        19255
#        45014
#        77468
#        106094
#        138433
#        162282
#        199370
#        237247
#        273626
#        285308
#        306001
#
# Disc length: 4271 seconds
#
# Revision: 1
# Processed by: cddbd v1.5.2PL0 Copyright (c) Steve Scherf et al.
# Submitted via: ExactAudioCopyFreeDBPlugin 1.0
#
DISCID=9510ad0c
DTITLE=Will Calhoun - Life in this World
DYEAR=2013
DGENRE=Jazz
TTITLE0=Brother Will
TTITLE1=Spectrum
TTITLE2=King Tut Strut
TTITLE3=Love for Sale
TTITLE4=Naima
TTITLE5=Evidence
TTITLE6=Afrique Kan'e
TTITLE7=He Who Hops
TTITLE8=Etcetera
TTITLE9=Abu Bakr II
TTITLE10=Dorita
TTITLE11=Love's Parody
EXTD=YEAR: 2012
EXTT0=
EXTT1=
EXTT2=
EXTT3=
EXTT4=
EXTT5=
EXTT6=
EXTT7=
EXTT8=
EXTT9=
EXTT10=
EXTT11=
PLAYORDER=
